<svg width="70" height="70" viewBox="0 0 70 70" fill="none" xmlns="http://www.w3.org/2000/svg">
<circle cx="35" cy="35" r="35" fill="#FFCD00"/>
<path d="M10.5 44.3335C10.5 44.3335 32.6667 75.8335 57.1667 44.3335" stroke="black" stroke-width="2"/>
<path d="M25.1008 49.9605C25.2955 50.0604 25.4942 50.1042 25.688 50.1072C25.8819 50.1041 26.0806 50.0603 26.2753 49.9605C26.5729 49.8087 26.8398 49.5531 27.0158 49.2159C27.2875 48.6954 27.3248 48.0354 27.2932 47.415C27.0783 43.2031 27.0109 41.8717 26.9331 37.6488C26.8925 35.4323 26.7433 33.2342 26.7076 31.0177C26.6744 28.9754 26.6387 26.8689 26.8749 24.841C27.0266 23.5403 27.2683 22.1998 27.9747 21.1863C28.1654 20.9123 28.3827 20.6658 28.5522 20.3714C29.4226 18.8629 28.9497 16.3867 28.8264 14.6592C28.6991 12.8594 28.571 9.6345 28.4436 7.62495C28.4274 7.3703 28.257 7.17474 28.0526 7.17677C28.0494 7.17677 28.0462 7.17677 28.0429 7.17677C27.8288 7.17881 27.6552 7.3968 27.656 7.66672L27.6567 16.0079C27.6567 16.2687 27.4888 16.4795 27.2812 16.4795C27.0735 16.4795 26.9057 16.2687 26.9057 16.0079L26.9057 7.67769C26.9058 7.40675 26.7297 7.18571 26.5132 7.18877L26.4491 7.1898C26.235 7.19184 26.0622 7.41085 26.063 7.67873L26.0629 16.009C26.0629 16.2697 25.895 16.4806 25.6874 16.4806C25.4797 16.4806 25.3118 16.2697 25.3118 16.009L25.3119 7.67875C25.3119 7.40983 25.1392 7.19083 24.9259 7.18982L24.8618 7.18881C24.646 7.18677 24.4692 7.4068 24.4692 7.67774L24.4699 16.009C24.4699 16.2698 24.302 16.4806 24.0944 16.4806C23.8867 16.4806 23.7188 16.2698 23.7188 16.009L23.7198 7.66575C23.7198 7.39685 23.547 7.17784 23.3329 7.17582C23.3296 7.17582 23.3264 7.17582 23.3231 7.17582C23.1196 7.1748 22.9492 7.36833 22.9322 7.62401C22.8048 9.63372 22.6775 12.8574 22.5492 14.6583C22.4267 16.3868 21.9538 18.863 22.8232 20.3705C22.9928 20.6649 23.2093 20.9124 23.4007 21.1853C24.1072 22.1988 24.3489 23.5393 24.5005 24.84C24.7373 26.8691 24.7008 28.9745 24.6676 31.0167C24.6319 33.2331 24.4826 35.4312 24.442 37.6478C24.3641 41.8688 24.2968 43.2022 24.0817 47.414C24.05 48.0344 24.0873 48.6944 24.359 49.2149C24.5358 49.5531 24.8031 49.8088 25.1008 49.9605Z" fill="black"/>
<path d="M41.857 49.4897C41.9642 49.512 42.0475 49.4539 42.1331 49.4511L42.1764 49.4491C42.9176 49.2818 43.4509 48.5612 43.4496 47.7852L43.4501 33.4349L41.3179 33.4246C41.0674 35.7659 40.9192 37.9666 40.8951 40.0561C40.8711 42.1456 40.9296 44.1237 41.092 46.0176C41.0936 46.0719 41.0936 46.0719 41.0736 46.099C41.0752 46.1533 41.0552 46.1803 41.0559 46.2336C40.6892 46.7856 40.428 47.3601 40.2742 47.9025C40.3666 48.8332 41.0259 49.4999 41.8567 49.4896L41.857 49.4897Z" fill="black"/>
<path d="M43.455 32.872L43.4414 15.8192C43.4475 14.588 43.0056 12.6262 42.4042 11.047C41.7589 9.41647 41.0254 8.40487 40.317 8.24957L40.2738 8.25153C40.1444 9.6493 40.0582 11.0451 39.9513 12.4691C39.9054 13.0871 39.8596 13.7052 39.8145 14.3221C39.7025 16.3089 39.6114 18.2676 39.5642 20.2779C39.5705 20.4909 39.5545 20.6799 39.5616 20.8939C39.492 22.8778 39.4657 24.8597 39.4818 26.8407C39.4799 27.5101 39.5213 28.1775 39.5195 28.8469C39.5382 30.2118 39.5577 31.5757 39.5764 32.9406L41.1331 32.9508L43.455 32.872Z" fill="black"/>
<path d="M53.6667 41.9917L59.8417 46.3167" stroke="black" stroke-width="2"/>
<path d="M7.78187 47.4865L12.9526 42.0001" stroke="black" stroke-width="2"/>
</svg>
